<?xml version="1.0" encoding="utf-8" ?>
<svg xmlns="http://www.w3.org/2000/svg" xmlns:xlink="http://www.w3.org/1999/xlink" width="1920" height="1920">
	<path fill="#FFFEFE" d="M0 0L1920 0L1920 1920L0 1920L0 0Z"/>
	<path fill="#0A2D37" d="M1347.91 878.647L1349.7 878.579C1351.36 879.403 1352.02 879.951 1353.03 881.572C1360.64 893.772 1358.97 939.123 1357.22 953.896Q1356.21 962.681 1354.47 971.352Q1352.74 980.023 1350.29 988.521C1327.15 1068.06 1269.92 1104.48 1189.75 1108.05Q1172.25 1108.89 1154.73 1108.59C1141.63 1108.32 1128.21 1107.3 1115.17 1108.98C1099.18 1111.04 1085.06 1117.85 1070.06 1123.21Q1048.38 1130.79 1025.92 1135.56C1018.06 1137.22 1010.11 1138.85 1002.16 1140.01C994.528 1141.12 976.45 1140.74 970.625 1143.92C970.342 1146.64 971.521 1149.9 973.371 1151.92C977.7 1156.65 988.225 1155.8 994.153 1156.12C1000.77 1162.19 1006.51 1169.34 1013.1 1175.53C1056.14 1175.51 1099.57 1178.25 1142.46 1181.68C1183.54 1184.96 1232.95 1188.13 1272.01 1201.7C1277.19 1203.49 1282.63 1205.48 1285.16 1210.69C1285.2 1212.59 1285.43 1213.44 1284.58 1215.21C1281.36 1221.91 1270.74 1225.56 1264 1227.61C1252.83 1231 1240.7 1232.7 1229.2 1234.67Q1177.86 1243.21 1125.9 1246.29C1082.68 1249.04 1039.29 1249.39 995.998 1250.11Q920.383 1251.47 844.811 1248.57C794.22 1246.73 743.839 1243.78 693.821 1235.58C677.15 1232.85 656.371 1230.12 641.477 1221.89C638.171 1220.07 635.662 1218.31 634.569 1214.56C634.782 1212.42 635.081 1210.87 636.529 1209.18C643.168 1201.42 659.028 1198.39 668.557 1196.12C722.658 1183.22 785.756 1179.8 841.618 1177.35C863.299 1176.39 884.883 1176.53 906.511 1174.45C912.442 1167.98 918.153 1161.11 925.36 1156.03C931.987 1155.88 939.252 1155.95 945.005 1152.08C947.023 1150.73 947.379 1149.61 947.795 1147.33C945.301 1141.41 941.257 1142.55 935.567 1142.09C878.296 1137.42 828.63 1120.83 781.414 1087.69L775.312 1083.47C731.836 1111.75 685.3 1109.37 635.887 1109.25Q594.258 1109.41 552.633 1108.79C561.703 1105.35 571.826 1102.09 578.715 1094.91C584.32 1089.07 586.003 1082.53 587.126 1074.78C590.355 1052.49 588.082 1029.19 588.021 1006.71L588.097 882.319Q616.931 888.603 645.982 893.793C648.972 902.018 651.6 910.765 655.94 918.382Q653.218 906.582 650.821 894.712Q722.532 904.652 794.717 910.183C806.99 923.858 814.324 941.149 817.627 959.111C825.169 1000.13 814.279 1036.01 791.038 1069.79C798.694 1077.91 807.449 1085.24 815.452 1093.05C809.388 1089.55 790.867 1076.07 784.489 1076.24C789.844 1085.15 828.004 1104.31 838.027 1108.76C915.43 1143.1 1000.55 1139.75 1078.71 1109.7C1073.33 1109.97 1067.91 1110.69 1062.55 1111.23C1072.96 1105.51 1085.2 1099.94 1093.82 1091.68C1098.2 1087.47 1099.81 1084.32 1101.03 1078.43C1105.31 1057.76 1102.74 1034.15 1102.65 1013.05L1102.83 911.317C1120.68 910.809 1138.56 909.655 1156.41 908.956C1148.72 935.69 1153.21 976.618 1152.72 1005.03C1152.39 1024.07 1149.67 1044.17 1151.78 1063.06C1152.5 1069.48 1154.3 1075.15 1159.67 1079.15C1169.42 1086.4 1184.92 1085.33 1196.33 1083.55Q1197.73 1083.34 1199.13 1083.1Q1200.53 1082.86 1201.92 1082.58Q1203.32 1082.31 1204.7 1081.99Q1206.09 1081.68 1207.46 1081.33Q1208.84 1080.99 1210.21 1080.61Q1211.57 1080.22 1212.93 1079.81Q1214.29 1079.39 1215.63 1078.94Q1216.98 1078.49 1218.31 1078.01Q1219.65 1077.53 1220.97 1077.01Q1222.29 1076.49 1223.6 1075.94Q1224.91 1075.39 1226.2 1074.81Q1227.5 1074.23 1228.78 1073.61Q1230.06 1073 1231.32 1072.35Q1232.58 1071.7 1233.83 1071.02Q1235.08 1070.35 1236.31 1069.64Q1237.53 1068.93 1238.74 1068.18Q1239.96 1067.44 1241.15 1066.67Q1242.34 1065.9 1243.51 1065.1Q1244.68 1064.3 1245.83 1063.47Q1246.99 1062.64 1248.12 1061.78Q1249.25 1060.92 1250.35 1060.04Q1251.46 1059.15 1252.55 1058.23Q1253.63 1057.32 1254.7 1056.38Q1255.76 1055.44 1256.8 1054.47Q1257.84 1053.5 1258.85 1052.51Q1259.86 1051.51 1260.85 1050.49Q1261.84 1049.48 1262.8 1048.43Q1263.76 1047.39 1264.7 1046.32Q1265.63 1045.25 1266.54 1044.16Q1267.45 1043.07 1268.33 1041.96Q1269.21 1040.85 1270.06 1039.71Q1270.92 1038.58 1271.74 1037.42C1302.04 995.007 1305.53 940.143 1296.96 890.322C1314.08 887.086 1330.98 882.778 1347.91 878.647Z"/>
	<path fill="#FFFEFE" d="M640.531 910.093C647.883 917.179 650.286 933.586 654.721 942.846C674.02 983.142 699.931 1021.63 734.508 1050.24C738.021 1046.35 741.296 1042.19 744.642 1038.15C724.941 1014.55 711.79 988.372 700.293 960.149C687.323 955.403 676.15 951.178 666.057 941.406C677.103 943.998 687.71 948.914 698.265 953.037C694.063 939.579 690.884 925.806 687.522 912.12C694.906 912.165 702.039 912.557 709.372 913.429C722.612 916.047 735.008 920.386 745.023 929.781C760.723 944.511 766.348 967.416 766.929 988.258C767.632 1013.47 759.812 1038.48 742.082 1056.84C724.047 1075.52 696.299 1085.58 670.588 1085.79C662.051 1085.86 652.604 1084.39 646.444 1077.91C642.492 1073.75 640.914 1068.1 640.191 1062.54C638.066 1046.19 640.024 1028.56 640.125 1012.04L640.531 910.093Z"/>
	<path fill="#0A2D37" d="M707.667 962.392Q719.528 966.236 731.682 969.019Q743.837 971.801 756.189 973.501C757.533 992.142 756.605 1007.79 750.874 1025.64L746.794 1032.95C728.479 1012.82 716.224 988.018 707.667 962.392Z"/>
	<path fill="#0A2D37" d="M695.082 919.373C705.512 921.145 715.984 922.758 725.539 927.564C741.904 935.794 748.245 949.639 753.702 965.992C737.25 962.6 720.978 958.938 704.717 954.706L695.082 919.373Z"/>
	<path fill="#FFFEFE" d="M873.866 1183.65C878.601 1183.35 884.85 1182.13 888.708 1185.3C887.927 1189.45 876.165 1189.18 872.379 1189.31C847.666 1190.15 746.958 1193.21 730.195 1209.51C729.821 1210.9 729.277 1211.52 730.162 1212.91C734.055 1219.05 748.38 1222.1 755.16 1223.6C799.642 1233.43 846.603 1234.42 892.002 1235.78C973.129 1238.21 1056.82 1238.73 1137.35 1228.04C1152.09 1226.08 1174.95 1224.95 1187.35 1216.03C1189.17 1214.71 1189.8 1213.97 1190.09 1211.69C1182.86 1197.15 1101.71 1192.3 1084.92 1191.34C1067.78 1190.36 1048.25 1192.56 1032.03 1186.47L1031.62 1185.43C1045.28 1180.4 1086.06 1186.01 1102.27 1186.87C1125.62 1187.06 1211.76 1192.83 1228.65 1207.8C1230.75 1209.67 1231.31 1211.33 1231.44 1214.06C1230.73 1215.36 1230.05 1216.53 1228.88 1217.48C1191.18 1248.33 895.54 1241.84 838.035 1239.63Q804.283 1238.29 770.664 1235.01C751.672 1233.02 699.09 1228.16 687.318 1213.6C686.897 1211.23 686.555 1210.65 688.077 1208.57C701.572 1190.21 843.602 1184.92 873.866 1183.65Z"/>
	<path fill="#0A2D37" d="M1144.83 333.08L1156.1 335.591C1153.84 343.83 1151 351.937 1148.35 360.057C1194.31 360.117 1236.26 370.466 1275.99 394.051C1332.62 427.679 1352.81 465.318 1428.85 455.562C1394.9 492.865 1383.88 542.766 1374.83 590.953C1360.89 592.802 1347.18 594.134 1333.14 592.684C1242.71 583.339 1207.23 502.974 1095.16 511.121C1091.84 521.717 1088.26 532.247 1084.8 542.798Q1088.07 544.107 1091.27 545.591C1180.33 586.007 1235.31 655.099 1269.23 745.177C1313.75 753.278 1357.21 761.202 1397.57 782.698C1408.55 789.442 1422.23 798.004 1425.76 811.276C1427.4 817.452 1426.1 823.605 1422.7 828.953C1406.98 853.704 1355.22 866.36 1327.48 872.99C1274.19 885.726 1219.22 892.486 1164.68 896.939Q1055.88 905.252 946.759 904.737C842.591 904.386 598.674 896.25 516.409 844.951C507.672 839.503 497.263 831.733 495.212 821.028C494.055 814.99 496.269 809.207 499.742 804.329C513.775 784.618 542.72 776.278 565.363 772.929C555.57 777.6 542.432 783.137 538.389 794.072Q538.111 794.823 537.91 795.599Q537.71 796.374 537.589 797.166Q537.469 797.958 537.429 798.758Q537.389 799.558 537.431 800.358Q537.473 801.158 537.596 801.95Q537.719 802.741 537.922 803.516Q538.124 804.291 538.405 805.042Q538.685 805.792 539.04 806.51C545.102 818.999 563.314 826.161 575.637 830.502C645.2 855.006 725.199 859.969 798.481 864.502Q854.13 868.007 909.877 869.173Q965.623 870.339 1021.37 869.163C1102.05 867.757 1182.94 863.298 1262.63 850.061C1292.47 845.105 1325.52 840.491 1352.95 827.163C1359.55 823.955 1370.32 817.942 1372.19 810.379C1372.93 807.407 1372.63 804.997 1370.92 802.431C1358.77 784.221 1313.44 776.521 1292.2 772.596C1309.4 786.883 1320.51 803.687 1331.24 823.036C1312.56 828.654 1293.46 832.251 1274.33 835.985C1270.96 818.759 1264.77 804.859 1255.82 789.792Q1259.21 814.217 1263.29 838.535C1255.7 839.208 1248.12 840.328 1240.55 841.307Q1240.79 840.294 1241.02 839.277C1242.16 834.047 1245.98 820.846 1243.06 816.305L1241.32 816.631C1239.65 818.429 1238.24 820.262 1235.9 821.189L1234.09 819.85C1233.36 818.121 1231.95 815.528 1232.7 813.58C1234.13 809.878 1238.27 805.84 1240.3 802.177C1244.62 794.404 1246.58 784.127 1248.61 775.557C1243.97 766.836 1241.02 757.223 1237.72 747.931C1245.45 751.257 1253.49 752.918 1261.66 754.726C1254.29 731.111 1244.95 708.482 1232.68 686.972C1196.22 623.071 1133.12 565.546 1061.59 545.741C1071.9 552.475 1085.08 555.408 1096.03 561.279C1099.42 563.096 1103.2 564.87 1104.36 568.713C1103.5 570.182 1103.54 570.694 1101.88 571.406C1094.67 574.517 1082.14 569.706 1075.25 567.263C1071.38 568.168 1067.59 569.495 1063.81 570.701C1052.48 565.993 1039.25 554.82 1027.39 553.296C1033.86 560.509 1049.95 566.442 1059.26 575.257L1046.02 583.125C1037.77 576.834 1028.8 570.898 1019.54 566.197C1009.98 561.341 999.917 557.288 990.977 551.318Q990.741 549.382 990.416 547.459C989.102 539.884 984.939 537.185 979.045 532.982C1013.42 537.727 1041.51 550.906 1072.27 565.753C1058.99 554.211 1042.2 547.85 1025.94 541.701C978.924 523.924 933.5 524.808 886.987 543.85C877.868 547.584 858.948 557.85 850.098 559.074C847.317 559.459 843.399 557.805 840.78 556.978C837.793 556.034 836.077 555.467 833.016 556.512C775.999 575.987 723.887 627.356 692.947 678.473C683.719 693.72 677.883 710.342 669.038 725.599C667.618 728.049 666.247 728.813 663.687 729.814C661.226 729.659 660.607 729.769 658.632 728.362C657.552 722.74 661.334 715.778 663.736 710.776C701.82 631.467 767.998 565.872 851.949 536.918Q857.302 535.118 862.712 533.496Q868.122 531.875 873.583 530.433Q879.044 528.991 884.549 527.732Q890.055 526.472 895.599 525.396Q901.144 524.319 906.721 523.427Q912.298 522.535 917.901 521.828Q923.505 521.122 929.128 520.601Q934.752 520.08 940.39 519.746Q946.028 519.412 951.674 519.266Q957.32 519.119 962.968 519.159Q968.615 519.2 974.259 519.427Q979.902 519.655 985.535 520.069Q991.167 520.484 996.783 521.085Q1002.4 521.686 1007.99 522.473Q1013.58 523.26 1019.15 524.232Q1024.71 525.203 1030.24 526.359C1044.75 529.391 1059.28 532.844 1072.67 539.346C1081.93 518.252 1088.09 495 1095.57 473.158Q1119.1 402.733 1144.83 333.08Z"/>
	<path fill="#FFFEFE" d="M1017.53 545.505C1021 545.928 1022.3 546.439 1024.54 549.365Q1026.01 551.302 1027.39 553.296C1024.78 553.957 1023.23 554.451 1020.61 553.391C1018.38 550.992 1018.12 548.59 1017.53 545.505Z"/>
	<path fill="#FFFEFE" d="M1239.46 420.072C1241.1 419.938 1242.42 419.979 1244.05 420.286C1267.42 424.676 1295.3 438.422 1308.62 458.745C1316.2 470.305 1319 484.187 1315.98 497.754C1313.6 508.403 1307.62 517.752 1298.15 523.378C1284.39 531.547 1269.43 529.935 1254.65 526.417C1237.01 520.787 1221.15 511.652 1206.36 500.669C1212.13 503.14 1217.22 505.248 1223.51 505.883L1225.6 503.528L1224.74 505.66L1225.17 505.435C1226.61 496.542 1205.95 491.006 1204.9 480.168C1204.35 474.464 1208.27 468.438 1211.76 464.285C1219.92 454.568 1231.07 453.602 1242.85 452.864C1245.58 446.651 1252.98 436.096 1251.18 429.442C1249.77 424.231 1243.71 422.387 1239.46 420.072Z"/>
	<path fill="#0A2D37" d="M1266.84 432.567C1274.59 435.32 1282.45 438.867 1288.86 444.101C1298.08 451.625 1304.51 461.749 1305.46 473.789C1306.5 486.968 1301.27 501.519 1292.47 511.325C1284.53 520.163 1275.15 523.553 1263.53 523.948C1257.81 523.127 1250.94 522.333 1245.99 519.178C1242.79 517.139 1239.61 513.367 1239.29 509.419C1238.46 498.876 1264.5 492.693 1270.94 484.599C1272.89 482.148 1273.56 479.659 1273.11 476.519C1271.95 468.37 1262.44 461.241 1256.31 456.545C1259.52 448.381 1263.09 440.487 1266.84 432.567Z"/>
	<path fill="#0A2D37" d="M1230.21 457.764C1233.53 457.339 1236.58 456.835 1239.9 457.404C1240.01 457.815 1240.18 458.213 1240.22 458.636C1240.76 464.374 1232.12 489.3 1227.84 494.001C1226.12 495.897 1225.21 495.505 1222.77 495.607C1218.39 493.201 1214.29 490.112 1212.07 485.489C1210.18 481.53 1210.12 477.084 1211.75 473.027C1215.09 464.738 1222.4 460.855 1230.21 457.764Z"/>
	<path fill="#0A2D37" d="M1255.16 459.749C1258.86 461.856 1262.5 464.249 1264.99 467.789C1267.03 470.691 1267.89 474.334 1267.15 477.829C1265.65 484.892 1259.86 488.777 1254.21 492.413L1243.12 496.403C1246.25 483.739 1250.13 471.79 1255.16 459.749Z"/>
	<path fill="#FFFEFE" d="M1146.36 364.275C1147.12 364.682 1147.26 364.691 1147.95 365.422C1152.29 370.04 1152.54 380.251 1152.66 386.336C1153.46 427.263 1131.38 470.133 1103.64 499.075L1101.6 500.768L1100.52 500.524C1099.17 492.267 1140.28 381.266 1146.36 364.275Z"/>
	<path fill="#0A2D37" d="M1427.01 1295.67Q1441.52 1294.66 1456.06 1294.62C1473.75 1294.54 1495.53 1295.23 1508.72 1308.89C1522.86 1323.54 1525.02 1346.07 1524.64 1365.4C1524.27 1384.27 1520.38 1406.08 1505.83 1419.48C1486.57 1437.22 1450.94 1432.92 1426.94 1431.58L1426.64 1418.9C1424.02 1422.24 1421.41 1425.75 1418.05 1428.39C1413.99 1431.6 1408.79 1433.66 1403.56 1432.98C1393.79 1431.73 1386.93 1423.26 1381.04 1416.17C1376.54 1420.37 1372.07 1424.25 1366.69 1427.29C1356.18 1433.21 1343.86 1435.51 1332.17 1431.86C1323.46 1429.15 1315.86 1423.34 1311.62 1415.19C1307.45 1407.18 1306.9 1397.64 1309.65 1389.07C1314.52 1373.93 1327.5 1366.25 1340.63 1359.19C1335.86 1349.1 1331.51 1339.23 1331.56 1327.83C1331.59 1319.15 1334.37 1310.15 1340.82 1304.08C1347.19 1298.08 1355.7 1296.28 1364.15 1296.73C1369.6 1296.91 1376.63 1299.82 1380.38 1303.89C1384.67 1308.55 1385.76 1315.93 1385.26 1322.01C1384.49 1331.44 1378.87 1340.51 1371.47 1346.24C1368.68 1348.4 1365.53 1349.99 1362.4 1351.58L1362.16 1353.68C1368.67 1368.69 1382.3 1383.07 1392.83 1395.56C1396.08 1389.39 1399.52 1384.25 1399.6 1377.11C1399.65 1372.93 1399.79 1368.6 1402.57 1365.2C1404.11 1363.31 1405.69 1362.34 1408.11 1362.04C1409.53 1362.91 1410.1 1363.32 1410.38 1365.08C1411.34 1371.3 1398.2 1392.13 1394.75 1398.58C1397.36 1402.09 1400.12 1405.59 1403.02 1408.86C1407 1413.33 1413.54 1419.94 1419.99 1419.58C1421.7 1419.49 1424.09 1418.55 1425.11 1417.07C1427.15 1414.11 1427.24 1407.58 1427.39 1403.94C1427.84 1392.83 1427.08 1381.56 1427.05 1370.42L1427.01 1295.67Z"/>
	<path fill="#FFFEFE" d="M1364.15 1296.73C1369.6 1296.91 1376.63 1299.82 1380.38 1303.89C1384.67 1308.55 1385.76 1315.93 1385.26 1322.01C1384.49 1331.44 1378.87 1340.51 1371.47 1346.24C1368.68 1348.4 1365.53 1349.99 1362.4 1351.58L1361.37 1349.68C1361.04 1349.5 1360.69 1349.34 1360.37 1349.13C1353.96 1344.92 1350.85 1334.84 1349.49 1327.69C1348.1 1320.37 1347.47 1310.87 1352.21 1304.55C1354.85 1301.02 1357.81 1300.21 1362.01 1299.64L1364.15 1296.73Z"/>
	<defs>
		<linearGradient id="gradient_0" gradientUnits="userSpaceOnUse" x1="1364.9329" y1="1322.3383" x2="1382.819" y2="1322.3885">
			<stop offset="0" stop-color="#1C2A30"/>
			<stop offset="1" stop-color="#0F383E"/>
		</linearGradient>
	</defs>
	<path fill="url(#gradient_0)" d="M1364.15 1296.73C1369.6 1296.91 1376.63 1299.82 1380.38 1303.89C1384.67 1308.55 1385.76 1315.93 1385.26 1322.01C1384.49 1331.44 1378.87 1340.51 1371.47 1346.24C1368.68 1348.4 1365.53 1349.99 1362.4 1351.58L1361.37 1349.68C1366.34 1343.09 1371.91 1338.72 1375.21 1330.72C1377.6 1324.91 1378.36 1317.1 1375.74 1311.23C1372.99 1305.07 1368.13 1301.86 1362.01 1299.64L1364.15 1296.73Z"/>
	<path fill="#FFFEFE" d="M1456.57 1307.04C1464.95 1306.8 1472.08 1306.71 1479.51 1311.3C1489.07 1317.22 1493.74 1327.82 1495.91 1338.45C1500.81 1362.54 1499.19 1390.55 1485.35 1411.47Q1484.45 1412.28 1483.5 1413.03Q1482.54 1413.78 1481.54 1414.47Q1480.54 1415.15 1479.49 1415.76Q1478.44 1416.37 1477.35 1416.91Q1476.26 1417.44 1475.14 1417.91Q1474.02 1418.37 1472.87 1418.75Q1471.71 1419.13 1470.54 1419.43Q1469.36 1419.73 1468.17 1419.95C1464.25 1420.65 1459.98 1420.45 1456.82 1417.72C1453.55 1414.89 1453.71 1409.08 1453.49 1405.02C1452.46 1386.08 1450.54 1327.3 1453.58 1311.99C1454.01 1309.86 1455.15 1308.62 1456.57 1307.04Z"/>
	<path fill="#FFFEFE" d="M1341.54 1362.01C1346.32 1365.92 1371.92 1404.6 1377.83 1412.54C1373.32 1415.29 1368.9 1417.46 1364.04 1419.5C1362.34 1419.82 1360.7 1419.94 1358.98 1419.92C1350.82 1419.86 1343.13 1416.62 1337.56 1410.62C1331.18 1403.76 1327.67 1393.52 1328.46 1384.18C1329.33 1373.94 1334.26 1368.45 1341.54 1362.01Z"/>
	<path fill="#0A2D37" d="M682.281 738.229C706.4 736.497 730.018 739.6 753.439 745.245C753.726 748.258 753.741 752.324 754.965 755.099C755.725 756.824 757.077 757.793 758.72 758.556L760.371 757.372C761.885 753.817 760.847 750.312 760.221 746.642C765.264 747.183 770.308 747.936 775.339 748.589C773.849 754.544 772.064 759.973 773.033 766.172L774.36 765.829C777.996 761.112 779.378 755.227 781.143 749.628Q819.611 754.658 858.291 757.645C852.713 787.693 851.058 817.987 850.297 848.493C841.845 842.045 833.544 837.238 823.813 832.955C819.858 826.001 811.276 815.395 803.578 812.618C797.582 810.454 792.77 811.718 787.218 814.369C786.098 815.996 785.353 817.028 783.808 818.299C781.739 817.053 781.275 815.721 780.372 813.607C779.01 810.416 778.583 808.348 775.729 806.298C767.387 807.158 765.143 819.824 757.768 823.503C754.79 821.942 751.136 819.527 747.785 819.208C744.431 818.889 742.076 819.343 739.291 817.027C737.311 813.154 737.926 808.403 737.96 804.141C738.052 802.013 738.227 799.269 737.405 797.251C736.408 794.803 735.007 793.787 732.801 792.605L727.905 790.031C725.793 784.699 730.228 778.563 731.943 773.466C732.656 771.347 733.201 770.107 732.122 768.054L729.834 767.567C724.165 769.511 720.267 774.754 716.551 779.209C691.218 758.699 670.162 760.866 639.34 763.448Q639.098 799.716 640.587 835.954C623.308 832.899 606.553 828.014 589.687 823.27C589.652 805.029 594.029 782.328 586.999 765.171C581.067 750.692 567.165 744.96 553.826 739.217C596.585 737.154 639.519 740.218 682.281 738.229Z"/>
	<path fill="#FFFEFE" d="M753.021 760.451C754.253 761.81 769.709 773.118 771.111 773.381C773.604 773.848 775.618 772.575 778.278 773.734C780.959 783.428 789.746 778.046 793.965 784.68C791.432 786.387 783.406 784.788 780.187 784.519C775.223 786.775 770.208 788.744 765.112 790.673C767.207 787.44 770.661 783.551 770.381 779.671C767.834 777.443 764.677 777.238 761.461 776.644L755.223 768.119L741.041 764.361L753.021 760.451Z"/>
	<path fill="#0A2D37" d="M1098.39 1301.64C1111.04 1299.95 1127.03 1304.14 1137.63 1311.14C1151.07 1320.01 1159.16 1334.79 1162.15 1350.35C1165.9 1369.84 1163.05 1392.79 1151.54 1409.34C1140.34 1425.45 1125.18 1430.95 1106.68 1434.35C1090.01 1434.7 1074.07 1432.15 1060.71 1421.53C1047.51 1411.05 1040.77 1394.55 1038.96 1378.15C1036.83 1358.87 1040.4 1338.18 1052.88 1322.81C1064.8 1308.16 1080.3 1303.37 1098.39 1301.64Z"/>
	<path fill="#FFFEFE" d="M1096.66 1309.99C1106.23 1308.91 1116.53 1310.88 1124.75 1315.96C1136.32 1323.11 1143.25 1335.18 1146.42 1348.13C1150.96 1366.68 1149.46 1389.63 1138.99 1406.03C1131.1 1418.38 1120.61 1423.1 1106.92 1426.11C1094.98 1426.23 1084.31 1424.92 1074.33 1417.67C1062.62 1409.16 1056.44 1395.6 1054.06 1381.67C1051.03 1363.89 1053.26 1342.42 1064.3 1327.59C1072.67 1316.36 1083.32 1312.15 1096.66 1309.99Z"/>
	<path fill="#0A2D37" d="M465.717 1302.65C478.299 1302.84 490.377 1303.08 502.431 1307.2C517.417 1312.31 530.523 1322.46 537.431 1336.94C545.285 1353.4 545.022 1374.03 538.946 1391.01C532.736 1408.36 520.189 1420.16 503.802 1427.99C480.763 1435.65 457.172 1434.52 433.255 1434.29Q433.897 1368.62 433.16 1302.96L465.717 1302.65Z"/>
	<path fill="#FFFEFE" d="M448.384 1311.61C468.265 1311.33 491.159 1309.42 508.104 1321.9C519.042 1329.95 525.307 1342.69 527.22 1355.91C530.117 1375.95 524.382 1393.87 512.546 1409.93C493.591 1426.76 472.04 1425.41 448.244 1425.17L448.384 1311.61Z"/>
	<path fill="#0A2D37" d="M1213.21 1296.7C1230.94 1296.37 1252.29 1293.68 1269.36 1298.58C1277.17 1300.82 1285.03 1305.24 1288.86 1312.71C1292.06 1318.92 1292.17 1326.96 1289.87 1333.49C1286.2 1343.88 1277.12 1348.74 1267.72 1353.02C1278.93 1356.63 1289.13 1360.91 1295.14 1371.83C1301.47 1383.32 1299.77 1396.51 1296.19 1408.52C1293.72 1413.62 1290.86 1418.34 1286.65 1422.22C1268.89 1438.56 1235.28 1434.19 1213.23 1433.3C1211.65 1387.95 1213.13 1342.09 1213.21 1296.7Z"/>
	<path fill="#FFFEFE" d="M1238.46 1360.21C1245.04 1360.21 1251.67 1361.05 1257.55 1364.19Q1258.15 1364.5 1258.73 1364.85Q1259.31 1365.19 1259.87 1365.57Q1260.43 1365.94 1260.97 1366.34Q1261.52 1366.74 1262.04 1367.17Q1262.56 1367.6 1263.06 1368.06Q1263.56 1368.51 1264.03 1368.99Q1264.51 1369.47 1264.96 1369.97Q1265.41 1370.48 1265.83 1371Q1266.25 1371.53 1266.65 1372.07Q1267.05 1372.62 1267.42 1373.18Q1267.78 1373.75 1268.12 1374.33Q1268.46 1374.91 1268.77 1375.51Q1269.08 1376.11 1269.36 1376.73Q1269.64 1377.34 1269.88 1377.97Q1270.13 1378.6 1270.34 1379.24Q1270.56 1379.88 1270.74 1380.53C1274.17 1392.55 1270.98 1403.64 1265.04 1414.15C1261.18 1416.99 1255.5 1420.29 1250.61 1420.65C1247.77 1420.86 1245.19 1419.97 1243.15 1417.94C1234.12 1408.93 1237.96 1372.51 1238.46 1360.21Z"/>
	<path fill="#FFFEFE" d="M1240.83 1307.85C1247.87 1307.86 1253.21 1307.91 1258.91 1312.78Q1259.26 1313.08 1259.6 1313.39Q1259.94 1313.71 1260.26 1314.04Q1260.58 1314.37 1260.89 1314.72Q1261.19 1315.06 1261.47 1315.43Q1261.76 1315.79 1262.03 1316.17Q1262.29 1316.55 1262.54 1316.94Q1262.78 1317.33 1263.01 1317.73Q1263.23 1318.14 1263.43 1318.55Q1263.64 1318.96 1263.82 1319.39Q1264 1319.81 1264.16 1320.25Q1264.32 1320.68 1264.46 1321.12Q1264.59 1321.56 1264.71 1322.01Q1264.82 1322.46 1264.91 1322.91Q1265 1323.36 1265.06 1323.82Q1265.13 1324.28 1265.17 1324.74Q1265.21 1325.2 1265.23 1325.66C1265.55 1332.94 1261.94 1338.68 1257.3 1343.91C1251.51 1346.88 1245 1347.32 1238.65 1348.05C1238.36 1336.65 1234.68 1317.57 1240.83 1307.85Z"/>
	<path fill="#0A2D37" d="M913.451 548.694C918.435 548.296 923.564 548.531 928.566 548.523C921.005 551.285 909.401 552.72 904.219 559.193L904.545 560.675C909.622 563.154 916.911 562.232 922.638 563.568L923.839 563.86L926.267 576.222C922.389 579.901 920.826 583.135 918.853 588.113C912.85 589.252 906.728 589.672 900.65 590.251C905.503 592.453 910.055 594.824 914.623 597.568C909.937 608.149 902.817 617.494 896.728 627.293C891.805 635.215 887.726 643.565 883.672 651.952C878.969 651.442 873.044 649.848 868.521 651.47C866.413 652.225 865.567 652.897 864.766 654.933C865.199 655.733 865.216 655.9 866.007 656.592C870.289 660.342 876.593 658.839 881.574 657.963C873.046 688.525 865.196 718.895 859.184 750.06C833.708 749.413 808.342 746.205 783.166 742.437C790.101 721.268 796.242 699.682 808.498 680.854C815.714 678.128 818.984 673.995 823.986 668.356C822.673 672.19 821.181 675.943 820.735 679.992L822.254 681.11C827.744 679.534 826.788 671.507 830.343 667.802C834.517 666.262 839.025 666.537 843.426 666.454C845.402 664.644 847.188 663.149 847.534 660.449L844.594 658.768L844.096 656.696L843.688 658.004L844.821 656.211L843.652 657.449C851.325 651.653 869.773 652.667 874.655 643.032C875.741 640.887 875.662 640.077 874.951 637.985C873.508 636.97 872.182 636.064 870.935 634.806C869.174 633.031 869.91 627.021 869.838 624.552C869.754 621.713 869.246 619.702 867.124 617.745C864.336 619.554 862.915 620.945 859.56 621.171C853.329 617.228 855.461 610.937 851.782 606.05C850.846 604.807 849.845 605.037 848.424 604.803C839.301 609.011 836.304 620.715 828.276 626.732C827.393 626.437 826.664 626.015 825.726 626.168C820.239 627.063 809.853 640.697 806.061 644.832C807.883 641.411 810.882 636.979 810.608 632.991C810.586 632.661 810.529 632.335 810.492 632.006C810.452 631.642 810.426 631.277 810.38 630.914C809.57 624.618 804.446 622.846 800.015 619.308C799.154 617.269 798.563 616.379 799.567 614.164C802.908 606.793 818.443 600.251 825.708 597.45C830.329 595.669 837.132 592.808 841.875 594.93L842.033 596.017C840.257 597.403 838.679 598.818 837.097 600.422L837.265 602.28L839.025 603.58C841.623 603.315 843.16 602.636 845.46 601.508C846.828 599.078 845.958 598.012 845.344 595.414C846.971 591.194 853.34 590.434 857.591 584.355C863.795 582.441 866.924 580.252 871.432 575.527L876.883 583.867L875.746 584.517C873.45 585.842 869.489 587.487 868.798 590.231C867.451 595.577 863.268 597.203 860.124 601.262C858.792 602.983 858.74 603.275 858.937 605.327C861.503 608.431 865.469 609.685 869.071 611.292C876.189 604.788 872.476 604.666 876.338 599.74C878.34 599.91 879.872 600.024 881.825 599.505C881.842 598.309 881.871 597.112 881.914 595.917C887.757 592.968 895.894 592.758 902.406 591.749C887.016 581.952 897.574 578.687 890.344 568.544C889.234 566.987 888.354 565.892 887.773 564.037C887.958 563.712 888.112 563.368 888.326 563.061C892.174 557.547 906.82 549.746 913.451 548.694Z"/>
	<path fill="#FFFEFE" d="M846.744 667.597C850.994 667.482 855.679 666.714 859.024 669.705L858.441 671.647C855.555 672.626 853.082 673.559 849.979 673.474C847.518 671.516 847.598 670.549 846.744 667.597Z"/>
	<path fill="#0A2D37" d="M1029.67 758.966C1035.7 758.47 1041.85 758.484 1047.9 758.302C1052.42 791.779 1054.7 825.744 1051.8 859.472Q1015.94 860.599 980.053 860.648L958.099 860.562L958.25 760.319Q993.978 760.576 1029.67 758.966Z"/>
	<path fill="#0A2D37" d="M863.84 758.038Q907.662 760.285 951.542 760.275C951.464 775.019 953.535 851.004 950.032 858.646C949.307 860.227 948.63 860.01 947.084 860.562C919.206 860.596 890.861 861.337 863.19 857.452C862.154 856.411 861.128 855.364 860.271 854.165C850.187 840.042 861.46 775.971 863.84 758.038Z"/>
	<path fill="#0A2D37" d="M1013.8 660.414L1027.67 659.976C1036.78 689.727 1044.2 720.362 1046.52 751.464Q1018.84 752.706 991.13 752.981Q974.776 753.568 958.411 753.683Q959.08 707.788 959.13 661.888C977.345 661.747 995.59 661.015 1013.8 660.414Z"/>
	<path fill="#0A2D37" d="M887.688 658.862C909.133 661.938 930.89 661.271 952.505 661.36L951.717 753.681L930.076 753.56C908.612 752.634 887.189 752.535 865.752 750.843C870.337 719.402 878.778 689.304 887.688 658.862Z"/>
	<path fill="#0A2D37" d="M1056.77 586.113C1058.34 586.603 1057.55 586.197 1059.04 587.511C1059.28 594.74 1060.13 604.622 1063.62 611.029C1067.6 618.369 1070.46 611.456 1075.45 613.051C1080.08 621.067 1087.61 631.457 1085.07 641.152C1084.3 644.067 1082.59 647.196 1079.91 648.705C1073.63 644.515 1073.3 635.408 1065.11 631.941L1065.73 633.307L1062.17 633.172C1062.04 633.403 1061.87 633.616 1061.77 633.866C1060.28 637.861 1061.99 643.935 1063.81 647.588C1066.73 649.653 1068.35 649.177 1071.87 649.218C1072.76 650.645 1073.58 652.1 1074.39 653.577L1076.3 653.877C1077.78 653.109 1079.16 652.366 1080.77 651.891C1082.04 651.517 1081.52 651.515 1082.7 652.195C1079.97 656.481 1073.72 659.835 1069.5 662.789C1074.69 668.755 1082.44 672.758 1087 679.144C1088.46 681.193 1088.56 682.149 1088.12 684.555C1083.7 689.108 1076.38 688.692 1070.44 689.202C1070.65 695.876 1070.53 703.605 1072.29 710.055C1073.53 714.614 1075.27 718.227 1079.5 720.566C1080.17 720.935 1080.87 721.236 1081.52 721.651C1083.63 723.024 1083.84 723.086 1084.25 725.427C1081.06 731.528 1079.17 740.643 1074.65 745.744C1069.55 751.513 1060.24 750.707 1053.22 751.117L1051.8 740.772Q1048.95 720.202 1044.31 699.962Q1039.67 679.721 1033.28 659.964C1042.61 659.396 1054.24 659.816 1062.39 654.736L1062.18 653.648C1053.26 650.008 1041.06 652.017 1031.65 652.669C1025.18 632.498 1017.61 613.713 1006.47 595.594L1018.23 594.104C1023.61 600.146 1029.16 607.371 1037.29 609.523L1038.69 608.623C1038.1 602.471 1030.37 597.489 1026.02 593.729L1045.35 590.391C1048.41 593.247 1051.47 595.824 1054.89 598.246C1057.88 597.11 1053.36 592.084 1056.77 586.113Z"/>
	<path fill="#FFFEFE" d="M1048.91 621.114C1052.23 621.58 1055.02 622.519 1057.33 625.079C1059.48 627.453 1060.15 630.332 1059.85 633.453C1059.24 639.774 1055.3 644.989 1050.63 648.997C1048.94 646.36 1047.56 643.596 1047.04 640.488C1046.48 637.18 1046.61 634.858 1048.56 632.097C1051.03 631.333 1052.31 631.606 1054.7 632.277C1054.97 632.353 1055.24 632.436 1055.51 632.515L1056.01 631.552C1053.77 628.984 1050.41 625.84 1049.34 622.572C1049.18 622.091 1049.05 621.6 1048.91 621.114Z"/>
	<path fill="#0A2D37" d="M1013.31 984.903C1022.31 984.338 1031.39 984.368 1040.4 984.194C1034.11 1012.55 1027.29 1039.82 1016.36 1066.78Q1000.48 1067.12 984.609 1067.89L958.163 1068.59L958.157 985.544Q985.738 985.637 1013.31 984.903Z"/>
	<path fill="#0A2D37" d="M870.256 983.041Q910.928 984.825 951.634 985.419L951.711 1068.56C932.563 1068.86 913.235 1067.62 894.104 1066.72C883.013 1039.57 876.614 1011.59 870.256 983.041Z"/>
	<path fill="#0A2D37" d="M1045.88 913.583C1047.19 913.554 1047.54 913.945 1048.66 914.551C1052.44 925.217 1043.71 964.046 1041.3 976.817C1014.45 978.058 987.823 978.785 960.936 978.743L960.125 978.457C955.236 972.47 957.895 924.803 958.025 914.431Q1001.96 914.335 1045.88 913.583Z"/>
	<path fill="#0A2D37" d="M905.888 1302.53L920.478 1302.3Q960.237 1359.51 1001.2 1415.87L1001.21 1348.6C1001.14 1336.99 997.841 1319.5 1001.21 1308.54C1001.89 1306.33 1003.1 1303.88 1005.45 1303.05C1007.68 1302.26 1008.67 1302.69 1010.66 1303.57C1012.01 1305.51 1012.59 1307.09 1012.79 1309.42C1013.77 1320.83 1012.44 1334.31 1012.44 1345.97Q1012.62 1389.98 1012.31 1433.99L997.923 1433.69C971.787 1395.7 944.447 1358.43 917.781 1320.8L917.801 1434.15L905.702 1434.18Q905.266 1368.35 905.888 1302.53Z"/>
	<path fill="#0A2D37" d="M1088.16 980.124C1090.39 979.906 1090.66 979.796 1092.59 980.871C1094.49 990.601 1093.7 1027.41 1090.7 1036.45C1088.26 1043.8 1082.98 1050.6 1078.7 1057.02C1062.78 1060.79 1046.63 1062.93 1030.42 1065.04C1028.34 1065.06 1026.98 1065.17 1025.15 1064.1C1024.66 1058.85 1036.73 1023.46 1038.88 1015.36Q1043.04 999.53 1046.25 983.481C1060.23 982.77 1074.21 981.323 1088.16 980.124Z"/>
	<path fill="#0A2D37" d="M983.499 567.664C984.097 567.7 984.695 567.717 985.291 567.772C993.7 568.549 1002.41 582.912 1007.23 589.317C1002.1 590.2 988.069 591.266 985.251 595.254C985.938 596.918 985.774 597.054 987.385 598.191C991.498 601.095 997.37 599.408 1002 598.725C1008.55 608.663 1026.12 641.495 1024.3 653.034L1021.65 654.105C1000.75 655.231 979.93 655.354 959.01 655.281C958.972 633.775 957.553 610.493 961.74 589.317C967.14 587.144 972.529 586.494 976.913 582.422L976.985 579.544C980.199 576.819 983.022 578.657 986.09 576.107C985.438 573.198 984.497 570.471 983.499 567.664Z"/>
	<path fill="#0A2D37" d="M905.031 914.14L951.542 914.291L951.622 978.754Q936.135 978.853 920.67 978.036C903.719 977.832 887.083 977.843 870.28 975.21C877.001 972.219 883.809 971.291 889.549 966.263C898.132 958.745 896.685 938.159 897.466 927.378C902.048 923.022 903.732 920.386 905.031 914.14Z"/>
	<path fill="#0A2D37" d="M1165.89 689.403C1163.28 684.124 1159.27 676.715 1161.04 670.739C1161.49 669.255 1161.57 669.232 1162.25 668.066L1163.83 667.907C1165.87 670.222 1168.22 673.656 1171.32 674.261L1173.07 673.373C1172.06 671.923 1171.13 670.658 1169.93 669.35L1171.37 669.139L1171 668.977C1174.56 670.486 1178.99 673.577 1182.5 674.532C1183.63 674.839 1185.6 674.002 1186.67 674.364C1192.51 676.332 1198.93 689.31 1201.88 694.541C1194.53 689.259 1188.52 685.649 1179.06 687.278C1174.95 687.985 1170.86 689.041 1166.81 689.994L1163.89 699.206C1170.43 702.15 1175.35 706.816 1180.69 711.493C1183.1 709.046 1183.95 707.678 1187.31 706.774C1189.34 707.582 1190.11 707.737 1191.34 709.641C1195.21 715.634 1194.72 728.933 1193.12 735.668C1189.38 736.175 1187.8 731.845 1181.58 732.243C1173.79 732.743 1171.34 730.767 1164.91 726.837L1164.38 740.733C1153.36 733.03 1152.04 732.018 1139.01 729.15C1132.03 727.613 1137.14 719.966 1134.5 715.345C1121.82 704.704 1106.88 725.572 1094.16 724.911L1093.55 723.543C1095 719.159 1098.35 715.508 1101.11 711.86C1099.9 705.764 1099.55 698.637 1101.6 692.648C1103.99 685.655 1109.37 685.622 1115.06 682.662C1116.15 680.92 1117.16 679.01 1118.75 677.677C1119.84 676.764 1121.98 676.933 1123.37 677.094C1135.98 678.556 1150.66 698.357 1158.28 707.677C1159.65 701.634 1158.57 700.298 1157.22 694.63C1156.72 692.547 1156.8 692.47 1157.84 690.695C1160.51 689.665 1163.07 689.582 1165.89 689.403Z"/>
	<path fill="#FFFEFE" d="M1118.12 680.546C1120.23 680.735 1121.89 680.928 1123.83 681.881C1129.35 684.595 1137.85 690.33 1139.7 696.406C1134.97 695.346 1131.13 693.592 1127.12 690.858C1123.68 688.514 1118.99 684.767 1118.12 680.546Z"/>
	<path fill="#FFFEFE" d="M1140.25 694.206C1142.12 694.608 1144.18 695.373 1145.61 696.703C1146.57 697.601 1147.1 698.777 1147 700.069C1146.7 704.306 1142.84 707.32 1139.96 710.012C1139.17 710.344 1138.31 710.248 1137.45 710.272C1135.69 706.983 1141.29 700.802 1140.25 694.206Z"/>
	<path fill="#0A2D37" d="M566.279 1303.06Q604.427 1302.42 642.575 1303.07L639.533 1312.21C620.147 1311.62 600.633 1312.19 581.234 1312.3L581.222 1362.07Q592.75 1361.49 604.291 1361.25C610.574 1361.17 626.459 1360.04 631.205 1364.68C631.107 1366.18 631.422 1366.91 630.267 1368.04C623.646 1374.55 590.516 1371.72 581.259 1371.49L581.256 1384.22L581.272 1424.97C598.83 1425.05 617.114 1423.03 634.559 1424.37C637.501 1424.6 640.434 1424.91 642.479 1427.23C642.473 1429.35 642.231 1430.2 640.566 1431.8C639.113 1433.19 637.072 1433.72 635.137 1433.97C625.947 1435.12 615.861 1434.11 606.57 1434.01Q586.454 1433.96 566.341 1434.29Q566.698 1368.67 566.279 1303.06Z"/>
	<path fill="#0A2D37" d="M687.649 772.418C694.607 775.856 701.556 779.187 707.34 784.481C711.287 788.095 715.359 795.623 720.336 797.343C729.676 800.572 723.345 811.36 729.1 817.725C733.138 822.191 739.01 821.956 744.491 822.541C748.05 822.92 751.074 823.321 753.322 826.448C755.966 830.126 755.341 838.108 754.262 842.204C753.068 846.735 750.15 848.116 746.313 850.248C724.638 850.883 701.304 845.773 679.876 842.45C679.67 818.744 683.462 795.658 687.649 772.418Z"/>
	<path fill="#0A2D37" d="M694.907 1301.52C708.176 1300.39 719.062 1303.51 730.776 1309.42L723.007 1318.54C714.245 1312.84 704.55 1308.28 693.805 1309.78C686.755 1310.76 680.344 1314.01 676.25 1319.95C672.294 1325.69 670.913 1333.79 672.511 1340.56C676.993 1359.54 705.174 1361.77 719.385 1370.82C726.076 1375.07 731.649 1381.15 733.03 1389.18C734.612 1398.38 730.546 1412.12 724.85 1419.51C716.477 1430.38 702.721 1433.97 689.765 1435.46C675.389 1435.46 664.821 1432.24 652.589 1424.69L662.023 1414.8C671.44 1423.01 682.241 1427.21 694.867 1426.09C702.131 1425.45 709.581 1422.58 714.089 1416.59C718.171 1411.17 720.695 1402.59 719.468 1395.84C715.869 1376.03 685.845 1373.75 671.785 1364C665.003 1359.3 659.815 1352.62 658.408 1344.36C656.819 1335.03 660.199 1323.83 665.892 1316.38C673.115 1306.94 683.606 1303.29 694.907 1301.52Z"/>
	<path fill="#0A2D37" d="M823.138 1302.61C828.472 1302.52 835.44 1301.29 839.762 1304.77C840.625 1307.29 840.293 1308.39 839.655 1310.88C835.478 1313.91 806.031 1312.32 798.794 1312.3L798.848 1433.99L784.759 1434.19L784.778 1408.59L784.792 1312.4C772.6 1312.62 760.355 1312.95 748.164 1312.6C745.071 1312.51 743.775 1312.27 741.649 1310C741.18 1307.55 741.132 1307.03 741.896 1304.68C746.735 1301.43 811.607 1303.02 823.138 1302.61Z"/>
	<path fill="#0A2D37" d="M951.077 591.342L952.568 591.224C956.125 595.791 952.87 645.157 952.508 654.703C932.52 654.352 912.629 654.912 892.723 652.608L891.053 652.012L890.954 650.327C894.877 641.678 906.632 615.183 916.018 611.605C918.683 610.589 922.418 613.265 924.93 614.276C931.587 613.594 936.127 603.419 940.952 599.226C941.818 598.473 942.603 597.816 943.379 596.964C945.712 594.404 948.044 592.99 951.077 591.342Z"/>
	<path fill="#0A2D37" d="M1071.95 912.72C1078.94 912.144 1086.02 912.219 1093.04 912.112L1093.08 971.886C1084.78 973.264 1076.42 974.002 1068.04 974.797L1047.56 976.695Q1050.71 960.966 1052.79 945.062Q1054.87 929.158 1055.88 913.15Q1063.92 913.052 1071.95 912.72Z"/>
	<path fill="#0A2D37" d="M864.523 987.737C868.025 992.39 870.574 1011.91 872.291 1018.62C876.387 1034.66 881.653 1050.27 887.429 1065.77Q868.881 1063.31 850.443 1060.13C845.952 1059.31 840.847 1058.78 836.549 1057.29C832.44 1055.86 830.662 1051.82 829.205 1048.09C827.641 1044.08 826.034 1042.08 823.006 1039.08L821.912 1038C826.083 1037.19 832.14 1036.73 834.841 1033.06C834.613 1030.81 833.976 1027.87 835.105 1025.84C837.569 1021.39 841.197 1021.47 845.571 1019.98C854.906 1016.82 860.398 996.267 864.523 987.737Z"/>
	<path fill="#0A2D37" d="M1267.34 894.256C1268.43 894.248 1269.76 894.15 1270.86 894.309C1272.06 894.484 1273.35 894.549 1274.06 895.621C1275.23 897.376 1275.25 899.669 1275 901.704C1274.04 909.849 1268.86 919.715 1265.85 927.446C1245.12 980.79 1212.79 1023.98 1166.88 1058.63L1164.31 1059.99L1162.47 1059.38C1160.82 1056.06 1161.5 1051.81 1161.63 1048.19C1198.25 1017.95 1229.7 984.723 1249.32 940.664C1255.89 925.907 1258.74 909.43 1266.72 895.333C1266.92 894.972 1267.13 894.615 1267.34 894.256Z"/>
	<path fill="#0A2D37" d="M836.949 1063.64C854.602 1067.97 872.489 1070.19 890.507 1072.37C902.866 1095.19 914.54 1112.86 935.424 1128.76C931.815 1128.44 928.18 1128.13 924.6 1127.55C887.06 1121.49 858.26 1093.29 836.949 1063.64Z"/>
	<path fill="#0A2D37" d="M1071.43 1065.38L1072.03 1066.05C1071.93 1067.51 1071.65 1068.22 1070.8 1069.43C1049.36 1100.27 1018.12 1122.67 980.897 1128.83L980.122 1127.93C981.112 1125.14 996.786 1111.58 1000.27 1107C1008.35 1096.37 1014.16 1084.12 1020.21 1072.27C1037.39 1070.66 1054.39 1068.02 1071.43 1065.38Z"/>
	<path fill="#0A2D37" d="M995.213 1073.91C1001.36 1073.45 1007.57 1073.35 1013.73 1073.08C1005.42 1091.41 993.34 1115.67 973.589 1123.76C968.562 1124.83 963.646 1124.95 958.535 1125.1C956.871 1108.41 957.668 1091.64 958.086 1074.9Q976.66 1074.78 995.213 1073.91Z"/>
	<path fill="#0A2D37" d="M897.026 1073.12Q924.544 1074.65 952.103 1074.92L952.265 1124.92C948.033 1125.11 943.949 1125.05 939.851 1123.83C918.553 1117.49 906.594 1091.15 897.026 1073.12Z"/>
	<path fill="#0A2D37" d="M858.946 1302.36L873.418 1303L873.396 1434.38L858.809 1434.3Q858.425 1368.33 858.946 1302.36Z"/>
	<path fill="#0A2D37" d="M658.496 770.867C666.306 770.583 674.18 770.798 681.997 770.813C680.658 784.798 677.46 798.606 676.189 812.628C675.615 818.96 676.532 834.968 674.09 840.125C673.459 841.457 673.435 841.035 671.779 841.448C663.577 840.444 655.365 838.726 647.217 837.321C647.638 814.775 649.333 791.745 658.496 770.867Z"/>
	<path fill="#0A2D37" d="M822.335 1057.8C831.79 1061.62 849.349 1087.48 857.834 1095.84C869.701 1107.52 885.054 1115.73 899.213 1124.26Q888.774 1122.08 878.428 1119.5C867.475 1116.21 838.327 1109.02 832.666 1100.25C832.784 1099.8 833.198 1098.31 833.188 1097.89C833.093 1094.03 811.512 1082.39 807.302 1078.06L808.086 1077.31C810.767 1077.81 813.459 1078.7 816.08 1077.63C819.685 1070.87 812.013 1067.04 812.925 1060.68C814.08 1060.83 815.378 1061.08 816.554 1061.1C819.779 1061.17 820.172 1059.95 822.335 1057.8Z"/>
	<path fill="#0A2D37" d="M1215.53 970.257L1216.92 970.204L1217.57 971.597C1213.09 984.101 1187.68 1017.86 1177.99 1028.48C1173.72 1033.17 1168.95 1037.18 1164.04 1041.18C1163.19 1041.18 1163.8 1041.24 1162.45 1040.28C1159.83 1029.66 1161.94 1016.47 1162.63 1005.58C1174.41 999.623 1180.79 989.849 1190.91 982.074C1198.32 976.381 1206.88 973.472 1215.53 970.257Z"/>
	<path fill="#0A2D37" d="M1088.5 1061.09C1089.95 1061.35 1090.31 1061.59 1091.47 1062.41C1094.2 1070.72 1092.06 1083.16 1089.64 1091.36C1072.63 1106.88 1039.77 1118.75 1017.39 1123.99C1015.25 1124.52 1016.26 1124.55 1014.36 1124.08C1015.72 1121.61 1033.34 1112.15 1037.52 1108.99Q1044.55 1103.79 1050.94 1097.81Q1057.33 1091.83 1062.98 1085.15C1068.86 1078.27 1074.61 1069.75 1081.7 1064.17C1083.7 1062.6 1086.1 1061.82 1088.5 1061.09Z"/>
	<path fill="#0A2D37" d="M1237.08 899.408C1239.24 899.267 1239.53 899.289 1241.43 900.308C1241.48 900.593 1241.58 900.874 1241.59 901.163C1241.78 907.581 1230.14 917.248 1225.83 921.318C1223.54 936.27 1216.78 949.71 1214.49 964.415C1209.98 966.799 1205.37 968.992 1200.8 971.253C1198.92 971.508 1198.37 971.607 1196.51 970.979C1196.57 959.655 1216.19 925.579 1224.2 916.376C1225.02 911.389 1225.22 906.358 1225.52 901.32C1229.3 900.387 1233.23 899.967 1237.08 899.408Z"/>
	<path fill="#0A2D37" d="M793.592 693.55L794.356 694.348C794.809 700.268 780.327 734.024 777.271 741.98L763.325 739.756C761.381 738.425 760.227 737.433 759.86 734.942C757.813 721.047 784.825 703.838 793.592 693.55Z"/>
	<path fill="#0A2D37" d="M980.613 553.799Q983.455 554.302 986.229 555.096C998.347 558.61 1030.64 572.381 1036.74 583.273L1035.68 584.704L1014.63 588.299C1003.13 576.99 990.402 566.695 980.613 553.799Z"/>
	<path fill="#0A2D37" d="M866.129 554.808L867.411 555.898C866.998 557.293 866.835 558.437 866.795 559.891C871.699 561.045 880.718 556.533 885.463 554.873C877.406 563.682 854.519 575.249 843.134 585.118C845.64 581 848.152 577.385 851.333 573.736C854.464 571.258 859.886 568.03 861.553 564.421C854.945 563.328 847.326 574.327 840.786 576.026C838.527 576.612 837.278 576.548 835.349 575.325L835.66 573.449C842.192 565.9 856.994 558.898 866.129 554.808Z"/>
	<path fill="#0A2D37" d="M1082.7 587.97C1090.12 589.805 1093.86 601.386 1100.55 605.97C1102.18 606.075 1104.58 605.999 1106.09 606.561C1108.03 607.277 1108.36 607.959 1109.04 609.755L1106.92 611.424C1106.21 614.525 1112.69 615.841 1113.47 619.251C1111.69 619.85 1110.81 620.133 1109.34 621.364C1109.7 623.285 1110.14 625.174 1110.59 627.077L1107.03 626.665C1105.61 627.359 1104.25 627.92 1102.77 628.474C1100.3 627.307 1099.16 626.514 1097.37 624.338C1097.22 621.59 1098.47 621.03 1100.24 619.008C1102.18 609.672 1087.66 604.415 1083.3 597.281C1081.22 593.869 1081.83 591.606 1082.7 587.97Z"/>
	<path fill="#0A2D37" d="M933.383 533.759C935.756 533.588 937.855 533.002 940.025 534.054C933.219 539.098 892.499 551.204 881.773 554.035C878.57 554.532 875.631 555.115 872.401 554.621L872.739 553.472C886.173 543.085 916.565 536.104 933.383 533.759Z"/>
	<path fill="#0A2D37" d="M689.899 692.599C690.005 692.707 690.13 692.801 690.218 692.925C693.348 697.356 689.185 722.222 688.87 728.698L674.32 729.297L673.28 727.537C675.109 715.485 683.533 702.749 689.899 692.599Z"/>
	<path fill="#0A2D37" d="M1249.31 896.705C1250.48 897.413 1250.7 897.849 1251.41 898.981C1252.1 912.338 1234.08 944.711 1226.55 956.436L1225.8 956.639C1225.12 954.794 1225.05 955.542 1225.39 954.152C1228.07 943.162 1233.89 932.226 1237.77 921.541C1240.14 914.994 1241.53 906.872 1244.62 900.785C1245.74 898.57 1247.29 897.963 1249.31 896.705Z"/>
	<path fill="#0A2D37" d="M1058.34 830.027C1067.49 834.306 1073.4 849.777 1077.26 858.504C1070.8 858.784 1064.28 858.703 1057.8 858.771L1058.34 830.027Z"/>
	<path fill="#0A2D37" d="M1233.55 958.044L1234.43 959.554C1230.99 975.88 1207.67 1001.71 1195.62 1014.41L1195.23 1014.08L1195.16 1012.52C1205.96 995.599 1219.05 971.474 1233.55 958.044Z"/>
	<path fill="#0A2D37" d="M726.496 725.497C730.453 725.469 732.561 727.305 736.102 727.803C739.46 728.275 743.943 726.932 747.319 726.428C750.266 725.988 752.394 725.926 754.904 727.771C755.646 730.175 755.51 730.667 755.025 733.16C754.662 735.029 754.134 736.588 753.423 738.362C747.394 736.911 724.481 733.35 720.82 730.312C722.067 728.093 724.426 726.927 726.496 725.497Z"/>
	<path fill="#0A2D37" d="M945.084 537.482C948.087 537.277 949.585 537.334 952.365 538.475C953.994 540.466 954.11 540.547 954.236 543.101C953.604 544.394 953.013 545.595 951.949 546.602C948.016 550.328 943.326 549.471 938.396 549.141C934.726 548.329 929.846 547.765 927.243 544.827L927.575 543.01C932.627 539.269 939.034 538.484 945.084 537.482Z"/>
	<path fill="#0A2D37" d="M1257.53 895.051L1260.01 897.161C1262.28 909.206 1246.4 936.589 1239.67 946.488C1238.71 946.878 1239.32 946.753 1237.8 946.38C1238.65 939.429 1244.49 931.234 1247.15 924.45C1250.93 914.801 1254.15 904.847 1257.53 895.051Z"/>
	<path fill="#0A2D37" d="M1054.32 757.615L1069.84 757.184C1068.34 763.066 1066.14 768.041 1063.09 773.25L1056.64 782.011C1055.35 773.862 1054.71 765.851 1054.32 757.615Z"/>
	<path fill="#0A2D37" d="M1132.67 844.595C1133.07 844.722 1133.5 844.788 1133.88 844.977C1136.32 846.203 1140.79 850.159 1141.19 852.766C1136.93 857.055 1122.38 855.859 1116.33 856.043L1104.65 857.092C1113.94 852.83 1123.33 848.747 1132.67 844.595Z"/>
	<path fill="#0A2D37" d="M967.194 535.931C972.272 536.226 979.39 537.429 983.328 540.939C986.104 543.415 986.036 545.493 986.109 548.913C980.904 547.6 974.283 546.45 970.103 542.967C967.607 540.886 967.453 539.038 967.194 535.931Z"/>
	<path fill="#0A2D37" d="M644.062 771.201C646.462 771.304 647.898 771.147 649.86 772.699C652.632 778.739 648.612 786.888 646.682 792.918C646.41 793.822 645.841 794.687 645.397 795.522C642.485 792.48 644.007 775.911 644.062 771.201Z"/>
	<path fill="#0A2D37" d="M1224.08 737.63C1228.14 740.349 1232.02 743.706 1235.9 746.693L1239.09 762.406C1232.93 757.443 1227.6 744.796 1224.08 737.63Z"/>
</svg>
